<svg width="23" height="21" viewBox="0 0 23 21" fill="none" xmlns="http://www.w3.org/2000/svg">
<path d="M18.8044 7.92943C20.1739 9.18119 21.0413 11.0141 21.0413 13.0259C21.0413 14.0541 20.813 15.0377 20.4022 15.9318C20.4022 15.9318 20.037 17.8094 22 19.7318C22 19.7318 18.3935 20.4918 17.1152 19.2847C16.1565 19.7318 15.1065 20 13.9652 20C11.637 20 9.53698 18.8824 8.25872 17.1835M1 15.3506C1 15.3506 4.78912 16.1106 6.15868 14.9035C7.16303 15.3953 8.25868 15.6635 9.49129 15.6635C13.6 15.6635 16.9782 12.3553 16.9782 8.33175C16.9782 4.26352 13.6456 1 9.49129 1C5.3826 1 2.00435 4.30823 2.00435 8.33175C2.00435 9.40469 2.23261 10.4776 2.68913 11.3717C2.68913 11.3717 3.1 13.3388 1 15.3506Z" stroke="#5DCB42" stroke-miterlimit="10" stroke-linejoin="round"/>
</svg>
