<svg width="8" height="8" viewBox="0 0 8 8" fill="none" xmlns="http://www.w3.org/2000/svg">
<path d="M1.30961 5.58903C1.06644 5.58903 0.858537 5.41409 0.816969 5.1745L0.25886 1.95774C0.176474 1.48289 0.747442 1.17782 1.09638 1.51025L1.97682 2.34902C2.21357 2.57457 2.59954 2.5159 2.75858 2.23019L3.56312 0.784836C3.75373 0.442417 4.24627 0.442418 4.43688 0.784837L5.24143 2.23019C5.40046 2.5159 5.78643 2.57457 6.02318 2.34902L6.90362 1.51025C7.25256 1.17782 7.82353 1.48289 7.74114 1.95774L7.18303 5.1745C7.14146 5.41409 6.93356 5.58903 6.69039 5.58903H1.30961ZM7.11111 6.98629C7.11111 7.26574 6.93333 7.45204 6.66667 7.45204H1.33333C1.06667 7.45204 0.888889 7.26574 0.888889 6.98629C0.888889 6.72906 1.09741 6.52054 1.35464 6.52054H6.64536C6.90259 6.52054 7.11111 6.72906 7.11111 6.98629Z" fill="white"/>
</svg>
