<svg width="18" height="16" viewBox="0 0 18 16" fill="none" xmlns="http://www.w3.org/2000/svg">
<path d="M15.6289 5.70298H7.2617C7.11608 5.70298 6.99803 5.8219 6.99803 5.96859C6.99803 6.11528 7.11608 6.23421 7.2617 6.23421H15.6289C15.7745 6.23421 15.8926 6.11528 15.8926 5.96859C15.8926 5.8219 15.7745 5.70298 15.6289 5.70298Z" fill="#4D4D4D"/>
<path d="M15.6289 7.73345H7.2617C7.11608 7.73345 6.99803 7.85237 6.99803 7.99906C6.99803 8.14575 7.11608 8.26468 7.2617 8.26468H15.6289C15.7745 8.26468 15.8926 8.14575 15.8926 7.99906C15.8926 7.85237 15.7745 7.73345 15.6289 7.73345Z" fill="#4D4D4D"/>
<path d="M15.6289 9.76392H7.2617C7.11608 9.76392 6.99803 9.88284 6.99803 10.0295C6.99803 10.1762 7.11608 10.2951 7.2617 10.2951H15.6289C15.7745 10.2951 15.8926 10.1762 15.8926 10.0295C15.8926 9.88284 15.7745 9.76392 15.6289 9.76392Z" fill="#4D4D4D"/>
<path d="M16.4664 3.38001H6.42417C5.57856 3.38001 4.89059 4.07302 4.89059 4.9249V11.2861C4.89059 12.138 5.57852 12.831 6.42417 12.831H13.4628C13.5381 12.831 13.608 12.8651 13.6547 12.9246L15.9277 15.8235C16.0173 15.9377 16.148 16 16.2849 16C16.3358 16 16.3875 15.9914 16.4383 15.9736C16.6256 15.9081 16.7466 15.7367 16.7466 15.537V12.8046C17.4576 12.6708 18 12.0375 18 11.2861V4.92486C18 4.07302 17.3121 3.38001 16.4664 3.38001ZM17.4727 11.2861C17.4727 11.8378 17.0271 12.2923 16.4795 12.2993C16.3352 12.3012 16.2192 12.4196 16.2192 12.565V15.3382L14.0685 12.5953C13.9213 12.4075 13.7005 12.2997 13.4628 12.2997H6.42417C5.86934 12.2997 5.41793 11.845 5.41793 11.2861V4.92486C5.41793 4.36594 5.8693 3.91121 6.42417 3.91121H16.4664C17.0212 3.91121 17.4727 4.36594 17.4727 4.92486V11.2861Z" fill="#4D4D4D"/>
<path d="M3.88455 7.77194C3.7042 7.79773 3.5427 7.89126 3.42977 8.03526L1.61849 10.3453V8.03012C1.61849 7.88474 1.50247 7.76638 1.35819 7.76451C0.90007 7.75863 0.527344 7.37837 0.527344 6.91684V1.37925C0.527344 0.911663 0.904992 0.531231 1.36916 0.531231H10.1112C10.5754 0.531231 10.953 0.911663 10.953 1.37925V2.40389C10.953 2.55058 11.0711 2.66951 11.2167 2.66951C11.3623 2.66951 11.4804 2.55058 11.4804 2.40389V1.37925C11.4804 0.618742 10.8662 0 10.1112 0H1.36916C0.614215 0 0 0.618742 0 1.37925V6.91684C0 7.57794 0.470074 8.13647 1.09118 8.26702V10.6174C1.09118 10.8061 1.20551 10.968 1.38248 11.0299C1.43047 11.0467 1.47934 11.0549 1.52743 11.0549C1.6567 11.0549 1.78028 10.996 1.8649 10.8881L3.84363 8.36455C3.87218 8.32811 3.91307 8.30445 3.9587 8.2979C4.10287 8.27728 4.20318 8.14281 4.18268 7.99757C4.16222 7.85234 4.02894 7.75123 3.88455 7.77194Z" fill="#4D4D4D"/>
</svg>
