<svg width="17" height="16" viewBox="0 0 17 16" fill="none" xmlns="http://www.w3.org/2000/svg">
<g clip-path="url(#clip0)">
<path d="M16.358 6.60892L9.42388 6.60861C9.11768 6.60861 8.86949 6.84217 8.86949 7.13036V9.2152C8.86949 9.50333 9.11768 9.73695 9.42385 9.73695H13.3287C12.9011 10.7814 12.1031 11.656 11.0849 12.2118L12.7499 14.9245C15.4208 13.4707 16.9999 10.9198 16.9999 8.06424C16.9999 7.65764 16.9681 7.36699 16.9044 7.03971C16.856 6.79105 16.6266 6.60892 16.358 6.60892Z" fill="#167EE6"/>
<path d="M8.49969 12.8696C6.58872 12.8696 4.92046 11.8869 4.02447 10.4327L1.14224 11.9963C2.60899 14.3889 5.35668 16 8.49969 16C10.0415 16 11.4964 15.6093 12.7497 14.9284V14.9247L11.0846 12.2119C10.323 12.6276 9.44169 12.8696 8.49969 12.8696Z" fill="#12B347"/>
<path d="M12.75 14.9284V14.9247L11.085 12.2119C10.3233 12.6276 9.44207 12.8696 8.5 12.8696V16C10.0419 16 11.4968 15.6093 12.75 14.9284Z" fill="#0F993E"/>
<path d="M3.32609 8.00004C3.32609 7.11351 3.58315 6.28411 4.02478 5.56732L1.14255 4.00376C0.415105 5.17961 0 6.54517 0 8.00004C0 9.45492 0.415105 10.8205 1.14255 11.9963L4.02478 10.4328C3.58315 9.71598 3.32609 8.88657 3.32609 8.00004Z" fill="#FFD500"/>
<path d="M8.49969 3.13044C9.74583 3.13044 10.8905 3.54719 11.7845 4.24041C12.0051 4.41141 12.3257 4.39906 12.5277 4.20891L14.0972 2.73172C14.3265 2.51597 14.3101 2.16281 14.0653 1.96288C12.5673 0.739781 10.6183 0 8.49969 0C5.35668 0 2.60899 1.61116 1.14224 4.00372L4.02447 5.56728C4.92046 4.11312 6.58872 3.13044 8.49969 3.13044Z" fill="#FF4B26"/>
<path d="M11.7849 4.24041C12.0054 4.41141 12.326 4.39906 12.528 4.20891L14.0975 2.73172C14.3267 2.51597 14.3104 2.16281 14.0656 1.96288C12.5676 0.73975 10.6186 0 8.5 0V3.13044C9.74611 3.13044 10.8908 3.54719 11.7849 4.24041Z" fill="#D93F21"/>
</g>
<defs>
<clipPath id="clip0">
<rect width="17" height="16" fill="white"/>
</clipPath>
</defs>
</svg>
