<svg width="18" height="18" viewBox="0 0 18 18" fill="none" xmlns="http://www.w3.org/2000/svg">
<mask id="path-1-inside-1" fill="white">
<path d="M7.28356 0H1.07357C0.481499 0 0 0.4815 0 1.07357V7.28357C0 7.87564 0.481499 8.35714 1.07357 8.35714H7.28356C7.87563 8.35714 8.35713 7.87564 8.35713 7.28357V1.07357C8.35713 0.4815 7.87563 0 7.28356 0ZM7.71427 7.28357C7.71427 7.5211 7.52109 7.71428 7.28356 7.71428H1.07357C0.836034 7.71428 0.642856 7.5211 0.642856 7.28357V1.07357C0.642856 0.836035 0.836034 0.642857 1.07357 0.642857H7.28356C7.52109 0.642857 7.71427 0.836035 7.71427 1.07357V7.28357Z"/>
<path d="M16.9264 0H10.7164C10.1244 0 9.64287 0.4815 9.64287 1.07357V7.28357C9.64287 7.87564 10.1244 8.35714 10.7164 8.35714H16.9264C17.5185 8.35714 18 7.87564 18 7.28357V1.07357C18 0.4815 17.5185 0 16.9264 0ZM17.3571 7.28357C17.3571 7.5211 17.164 7.71428 16.9264 7.71428H10.7164C10.4789 7.71428 10.2857 7.5211 10.2857 7.28357V1.07357C10.2857 0.836035 10.4789 0.642857 10.7164 0.642857H16.9264C17.164 0.642857 17.3571 0.836035 17.3571 1.07357V7.28357Z"/>
<path d="M7.28356 9.64286H1.07357C0.481499 9.64286 0 10.1244 0 10.7164V16.9264C0 17.5185 0.481499 18 1.07357 18H7.28356C7.87563 18 8.35713 17.5185 8.35713 16.9264V10.7164C8.35713 10.1244 7.87563 9.64286 7.28356 9.64286ZM7.71427 16.9264C7.71427 17.164 7.52109 17.3571 7.28356 17.3571H1.07357C0.836034 17.3571 0.642856 17.164 0.642856 16.9264V10.7164C0.642856 10.4789 0.836034 10.2857 1.07357 10.2857H7.28356C7.52109 10.2857 7.71427 10.4789 7.71427 10.7164V16.9264Z"/>
<path d="M17.6786 13.5H14.1429V9.96429C14.1429 9.78654 13.9992 9.64286 13.8214 9.64286C13.6437 9.64286 13.5 9.78654 13.5 9.96429V13.5H9.9643C9.78655 13.5 9.64287 13.6437 9.64287 13.8214C9.64287 13.9992 9.78655 14.1429 9.9643 14.1429H13.5V17.6786C13.5 17.8563 13.6437 18 13.8214 18C13.9992 18 14.1429 17.8563 14.1429 17.6786V14.1429H17.6786C17.8563 14.1429 18 13.9992 18 13.8214C18 13.6437 17.8563 13.5 17.6786 13.5Z"/>
</mask>
<path d="M7.28356 0H1.07357C0.481499 0 0 0.4815 0 1.07357V7.28357C0 7.87564 0.481499 8.35714 1.07357 8.35714H7.28356C7.87563 8.35714 8.35713 7.87564 8.35713 7.28357V1.07357C8.35713 0.4815 7.87563 0 7.28356 0ZM7.71427 7.28357C7.71427 7.5211 7.52109 7.71428 7.28356 7.71428H1.07357C0.836034 7.71428 0.642856 7.5211 0.642856 7.28357V1.07357C0.642856 0.836035 0.836034 0.642857 1.07357 0.642857H7.28356C7.52109 0.642857 7.71427 0.836035 7.71427 1.07357V7.28357Z" fill="white"/>
<path d="M16.9264 0H10.7164C10.1244 0 9.64287 0.4815 9.64287 1.07357V7.28357C9.64287 7.87564 10.1244 8.35714 10.7164 8.35714H16.9264C17.5185 8.35714 18 7.87564 18 7.28357V1.07357C18 0.4815 17.5185 0 16.9264 0ZM17.3571 7.28357C17.3571 7.5211 17.164 7.71428 16.9264 7.71428H10.7164C10.4789 7.71428 10.2857 7.5211 10.2857 7.28357V1.07357C10.2857 0.836035 10.4789 0.642857 10.7164 0.642857H16.9264C17.164 0.642857 17.3571 0.836035 17.3571 1.07357V7.28357Z" fill="white"/>
<path d="M7.28356 9.64286H1.07357C0.481499 9.64286 0 10.1244 0 10.7164V16.9264C0 17.5185 0.481499 18 1.07357 18H7.28356C7.87563 18 8.35713 17.5185 8.35713 16.9264V10.7164C8.35713 10.1244 7.87563 9.64286 7.28356 9.64286ZM7.71427 16.9264C7.71427 17.164 7.52109 17.3571 7.28356 17.3571H1.07357C0.836034 17.3571 0.642856 17.164 0.642856 16.9264V10.7164C0.642856 10.4789 0.836034 10.2857 1.07357 10.2857H7.28356C7.52109 10.2857 7.71427 10.4789 7.71427 10.7164V16.9264Z" fill="white"/>
<path d="M17.6786 13.5H14.1429V9.96429C14.1429 9.78654 13.9992 9.64286 13.8214 9.64286C13.6437 9.64286 13.5 9.78654 13.5 9.96429V13.5H9.9643C9.78655 13.5 9.64287 13.6437 9.64287 13.8214C9.64287 13.9992 9.78655 14.1429 9.9643 14.1429H13.5V17.6786C13.5 17.8563 13.6437 18 13.8214 18C13.9992 18 14.1429 17.8563 14.1429 17.6786V14.1429H17.6786C17.8563 14.1429 18 13.9992 18 13.8214C18 13.6437 17.8563 13.5 17.6786 13.5Z" fill="white"/>
<path d="M14.1429 13.5H13.1429V14.5H14.1429V13.5ZM13.5 13.5V14.5H14.5V13.5H13.5ZM13.5 14.1429H14.5V13.1429H13.5V14.1429ZM14.1429 14.1429V13.1429H13.1429V14.1429H14.1429ZM7.28356 -1H1.07357V1H7.28356V-1ZM1.07357 -1C-0.0707868 -1 -1 -0.0707839 -1 1.07357H1C1 1.03378 1.03378 1 1.07357 1V-1ZM-1 1.07357V7.28357H1V1.07357H-1ZM-1 7.28357C-1 8.42792 -0.0707863 9.35714 1.07357 9.35714V7.35714C1.03378 7.35714 1 7.32335 1 7.28357H-1ZM1.07357 9.35714H7.28356V7.35714H1.07357V9.35714ZM7.28356 9.35714C8.42791 9.35714 9.35713 8.42792 9.35713 7.28357H7.35713C7.35713 7.32335 7.32334 7.35714 7.28356 7.35714V9.35714ZM9.35713 7.28357V1.07357H7.35713V7.28357H9.35713ZM9.35713 1.07357C9.35713 -0.0707844 8.42791 -1 7.28356 -1V1C7.32334 1 7.35713 1.03378 7.35713 1.07357H9.35713ZM6.71427 7.28357C6.71427 6.96882 6.96881 6.71428 7.28356 6.71428V8.71428C8.07338 8.71428 8.71427 8.07339 8.71427 7.28357H6.71427ZM7.28356 6.71428H1.07357V8.71428H7.28356V6.71428ZM1.07357 6.71428C1.38832 6.71428 1.64286 6.96882 1.64286 7.28357H-0.357144C-0.357144 8.07339 0.283748 8.71428 1.07357 8.71428V6.71428ZM1.64286 7.28357V1.07357H-0.357144V7.28357H1.64286ZM1.64286 1.07357C1.64286 1.38832 1.38832 1.64286 1.07357 1.64286V-0.357143C0.283748 -0.357143 -0.357144 0.283752 -0.357144 1.07357H1.64286ZM1.07357 1.64286H7.28356V-0.357143H1.07357V1.64286ZM7.28356 1.64286C6.96881 1.64286 6.71427 1.38832 6.71427 1.07357H8.71427C8.71427 0.283751 8.07338 -0.357143 7.28356 -0.357143V1.64286ZM6.71427 1.07357V7.28357H8.71427V1.07357H6.71427ZM16.9264 -1H10.7164V1H16.9264V-1ZM10.7164 -1C9.57209 -1 8.64287 -0.0707838 8.64287 1.07357H10.6429C10.6429 1.03378 10.6767 1 10.7164 1V-1ZM8.64287 1.07357V7.28357H10.6429V1.07357H8.64287ZM8.64287 7.28357C8.64287 8.42792 9.57209 9.35714 10.7164 9.35714V7.35714C10.6767 7.35714 10.6429 7.32335 10.6429 7.28357H8.64287ZM10.7164 9.35714H16.9264V7.35714H10.7164V9.35714ZM16.9264 9.35714C18.0708 9.35714 19 8.42792 19 7.28357H17C17 7.32335 16.9662 7.35714 16.9264 7.35714V9.35714ZM19 7.28357V1.07357H17V7.28357H19ZM19 1.07357C19 -0.0707849 18.0708 -1 16.9264 -1V1C16.9662 1 17 1.03378 17 1.07357H19ZM16.3571 7.28357C16.3571 6.96882 16.6117 6.71428 16.9264 6.71428V8.71428C17.7163 8.71428 18.3571 8.07339 18.3571 7.28357H16.3571ZM16.9264 6.71428H10.7164V8.71428H16.9264V6.71428ZM10.7164 6.71428C11.0312 6.71428 11.2857 6.96882 11.2857 7.28357H9.28573C9.28573 8.07339 9.92662 8.71428 10.7164 8.71428V6.71428ZM11.2857 7.28357V1.07357H9.28573V7.28357H11.2857ZM11.2857 1.07357C11.2857 1.38832 11.0312 1.64286 10.7164 1.64286V-0.357143C9.92662 -0.357143 9.28573 0.283751 9.28573 1.07357H11.2857ZM10.7164 1.64286H16.9264V-0.357143H10.7164V1.64286ZM16.9264 1.64286C16.6117 1.64286 16.3571 1.38832 16.3571 1.07357H18.3571C18.3571 0.283751 17.7163 -0.357143 16.9264 -0.357143V1.64286ZM16.3571 1.07357V7.28357H18.3571V1.07357H16.3571ZM7.28356 8.64286H1.07357V10.6429H7.28356V8.64286ZM1.07357 8.64286C-0.0707863 8.64286 -1 9.57208 -1 10.7164H1C1 10.6766 1.03378 10.6429 1.07357 10.6429V8.64286ZM-1 10.7164V16.9264H1V10.7164H-1ZM-1 16.9264C-1 18.0708 -0.0707863 19 1.07357 19V17C1.03378 17 1 16.9662 1 16.9264H-1ZM1.07357 19H7.28356V17H1.07357V19ZM7.28356 19C8.42791 19 9.35713 18.0708 9.35713 16.9264H7.35713C7.35713 16.9662 7.32334 17 7.28356 17V19ZM9.35713 16.9264V10.7164H7.35713V16.9264H9.35713ZM9.35713 10.7164C9.35713 9.57208 8.42791 8.64286 7.28356 8.64286V10.6429C7.32334 10.6429 7.35713 10.6766 7.35713 10.7164H9.35713ZM6.71427 16.9264C6.71427 16.6117 6.96881 16.3571 7.28356 16.3571V18.3571C8.07338 18.3571 8.71427 17.7163 8.71427 16.9264H6.71427ZM7.28356 16.3571H1.07357V18.3571H7.28356V16.3571ZM1.07357 16.3571C1.38832 16.3571 1.64286 16.6117 1.64286 16.9264H-0.357144C-0.357144 17.7162 0.283749 18.3571 1.07357 18.3571V16.3571ZM1.64286 16.9264V10.7164H-0.357144V16.9264H1.64286ZM1.64286 10.7164C1.64286 11.0312 1.38832 11.2857 1.07357 11.2857V9.28572C0.283749 9.28572 -0.357144 9.92661 -0.357144 10.7164H1.64286ZM1.07357 11.2857H7.28356V9.28572H1.07357V11.2857ZM7.28356 11.2857C6.96881 11.2857 6.71427 11.0312 6.71427 10.7164H8.71427C8.71427 9.92661 8.07338 9.28572 7.28356 9.28572V11.2857ZM6.71427 10.7164V16.9264H8.71427V10.7164H6.71427ZM17.6786 12.5H14.1429V14.5H17.6786V12.5ZM15.1429 13.5V9.96429H13.1429V13.5H15.1429ZM15.1429 9.96429C15.1429 9.23426 14.5515 8.64286 13.8214 8.64286V10.6429C13.4469 10.6429 13.1429 10.3388 13.1429 9.96429H15.1429ZM13.8214 8.64286C13.0914 8.64286 12.5 9.23427 12.5 9.96429H14.5C14.5 10.3388 14.196 10.6429 13.8214 10.6429V8.64286ZM12.5 9.96429V13.5H14.5V9.96429H12.5ZM13.5 12.5H9.9643V14.5H13.5V12.5ZM9.9643 12.5C9.23427 12.5 8.64287 13.0914 8.64287 13.8214H10.6429C10.6429 14.196 10.3388 14.5 9.9643 14.5V12.5ZM8.64287 13.8214C8.64287 14.5515 9.23426 15.1429 9.9643 15.1429V13.1429C10.3388 13.1429 10.6429 13.4469 10.6429 13.8214H8.64287ZM9.9643 15.1429H13.5V13.1429H9.9643V15.1429ZM12.5 14.1429V17.6786H14.5V14.1429H12.5ZM12.5 17.6786C12.5 18.4086 13.0914 19 13.8214 19V17C14.196 17 14.5 17.304 14.5 17.6786H12.5ZM13.8214 19C14.5515 19 15.1429 18.4086 15.1429 17.6786H13.1429C13.1429 17.304 13.4469 17 13.8214 17V19ZM15.1429 17.6786V14.1429H13.1429V17.6786H15.1429ZM14.1429 15.1429H17.6786V13.1429H14.1429V15.1429ZM17.6786 15.1429C18.4086 15.1429 19 14.5515 19 13.8214H17C17 13.4469 17.304 13.1429 17.6786 13.1429V15.1429ZM19 13.8214C19 13.0914 18.4086 12.5 17.6786 12.5V14.5C17.304 14.5 17 14.196 17 13.8214H19Z" fill="white" mask="url(#path-1-inside-1)"/>
</svg>
