<svg width="161" height="195" viewBox="0 0 161 195" fill="none" xmlns="http://www.w3.org/2000/svg">
<path d="M43.6457 0.378921C44.4603 0.21584 45.2912 0.157131 46.1222 0.15387C68.9212 0.163654 91.7236 0.15387 114.523 0.157131C117.83 0.179963 121.085 1.68357 123.248 4.17544C124.134 5.18002 124.766 6.37051 125.44 7.51859C136.216 26.0119 146.996 44.5053 157.775 62.9986C158.469 64.2022 159.237 65.3796 159.686 66.7038C160.788 69.8154 160.428 73.3934 158.74 76.231C147.362 95.7583 135.98 115.282 124.602 134.806C123.032 137.598 120.258 139.666 117.137 140.407C115.638 140.795 114.081 140.739 112.55 140.733C90.2939 140.729 68.0412 140.736 45.7852 140.733C41.7678 140.713 37.8486 138.469 35.8333 135.002C24.4093 115.416 12.9983 95.8268 1.58075 76.2375C-0.110616 73.3967 -0.473752 69.8187 0.632014 66.7038C1.07694 65.3764 1.85228 64.1989 2.54584 62.9954C13.6002 44.0258 24.6579 25.0563 35.7123 6.08348C37.3611 3.15129 40.3414 1.02472 43.6457 0.378921ZM37.5214 6.27592C35.4506 9.61581 33.648 13.122 31.492 16.4065C33.1998 14.3973 36.5302 14.156 38.4734 15.9531C40.2368 17.4274 40.5377 20.1215 39.3731 22.0556C48.3664 30.1281 56.2344 39.5411 62.0805 50.1283C64.5538 48.429 66.4873 46.0807 68.159 43.6214C71.1949 39.0747 73.3149 33.9116 74.2701 28.5332C75.3432 22.597 74.7805 16.3413 72.3727 10.7867C69.9583 11.4423 67.1775 10.079 66.4284 7.66211C65.5843 5.32679 66.9354 2.61313 69.2157 1.70966C61.4197 1.80425 53.6205 1.70966 45.8212 1.75858C42.5366 1.7912 39.3077 3.51659 37.5214 6.27592ZM72.991 1.72597C74.522 2.47614 75.7489 3.93082 75.8928 5.666C76.0826 7.00978 75.5199 8.3079 74.7118 9.35488C76.1807 13.0829 77.1262 17.0229 77.3715 21.0217C77.9506 29.6845 75.497 38.4126 70.9921 45.7969C69.0979 48.8563 66.8667 51.7689 64.0271 54.0129C66.6247 59.8153 68.3487 65.9798 69.4054 72.2388C70.0499 76.2278 70.4 80.2852 70.1415 84.3263C69.9452 86.8769 69.5396 89.4862 68.3422 91.7857C66.87 94.6069 63.6607 96.2149 60.5462 96.3193C56.9541 96.44 53.5125 95.0929 50.3849 93.4556C44.9543 90.5169 40.1648 86.5475 35.6599 82.3661C28.2009 75.3438 21.4747 67.5682 15.3668 59.3554C14.2447 59.512 13.0506 59.4989 12.0266 58.9542C10.3058 58.1454 9.24914 56.2699 9.33092 54.388C8.20553 56.7951 6.69083 58.9999 5.4084 61.3254C4.36479 63.2367 3.08237 65.0306 2.24486 67.0496C1.2078 69.773 1.50878 72.9433 3.00712 75.4417C14.3854 94.9657 25.7669 114.49 37.1452 134.014C38.4342 136.297 40.649 138.032 43.1811 138.743C44.7678 139.223 46.4461 139.141 48.0851 139.144C57.8145 139.141 67.5407 139.141 77.2701 139.141C72.834 126.623 72.1142 113.133 72.5624 99.9658C72.7195 92.4934 74.2865 85.1613 75.6573 77.8422C78.0847 63.938 82.6615 50.4904 88.2493 37.5515C93.0616 26.9872 99.5915 17.2708 106.916 8.28181C105.699 5.84539 106.933 2.7175 109.452 1.71292C97.2982 1.77815 85.1446 1.75532 72.991 1.72597ZM113.58 1.72923C114.372 2.46635 115.285 3.15455 115.733 4.17544C116.584 5.93019 116.175 8.18396 114.765 9.53427C113.302 11.0379 110.924 11.3021 109.059 10.428C97.3407 25.3955 89.0442 42.8158 83.4729 60.9112C81.2875 68.0085 80.0149 75.3439 79.0792 82.6988C82.0825 83.2304 85.1544 82.813 88.0922 82.1084C98.2142 79.5905 107.453 74.2545 115.383 67.5779C122.875 61.3352 130.016 54.5837 135.971 46.8439C134.626 45.1739 134.456 42.6462 135.807 40.9306C137.26 38.9051 140.273 38.4191 142.366 39.7205C136.37 29.6421 130.54 19.4594 124.609 9.33857C123.552 7.59687 122.688 5.67252 121.108 4.32221C119.077 2.4794 116.296 1.6379 113.58 1.72923ZM14.0746 46.459C13.2338 47.8517 12.4912 49.3064 11.5588 50.6469C13.7311 49.277 16.8979 49.8706 18.285 52.0657C19.5544 53.8726 19.2174 56.42 17.755 58.0149C23.611 65.9047 30.3045 73.1684 37.5705 79.7862C41.9903 83.7295 46.6358 87.5162 51.8866 90.3179C54.471 91.6356 57.2714 92.8391 60.2321 92.7446C62.3684 92.7022 64.472 91.466 65.3913 89.5156C66.7064 86.7889 66.9812 83.7001 67.0565 80.7157C67.1056 73.9316 65.6007 67.2192 63.327 60.8525C58.1384 46.5144 48.759 33.9703 37.5541 23.7223C36.1081 24.3974 34.3579 24.5149 32.9282 23.7256C30.9653 22.7699 30.0395 20.4607 30.4059 18.3667C25.0243 27.7634 19.5086 37.0884 14.0746 46.459ZM144.637 43.6671C144.591 45.3207 143.773 46.958 142.324 47.8126C140.979 48.6834 139.265 48.6997 137.786 48.1877C130.573 58.253 122.361 67.741 112.537 75.3634C112.841 76.7627 113.953 77.7509 114.99 78.6479C117.317 80.5429 119.937 82.0465 122.613 83.387C127.808 85.9474 133.337 87.8424 139.016 89.0035C139.972 87.2357 141.957 86.0485 143.992 86.3257C146.348 86.5279 148.265 88.6317 148.334 90.9735C151.278 85.5984 154.504 80.3765 157.526 75.0405C158.645 72.9824 158.966 70.5199 158.433 68.2433C158.034 66.3809 156.908 64.8088 155.986 63.178C152.207 56.6711 148.386 50.187 144.637 43.6671ZM78.5525 87.5619C77.9211 94.4993 77.7347 101.479 78.1043 108.439C78.6867 118.844 80.2864 129.278 83.7477 139.138C93.8926 139.144 104.037 139.141 114.182 139.141C117.653 139.2 121.102 137.38 122.921 134.421C130.592 121.375 138.117 108.237 145.834 95.2169C143.855 96.378 141.107 95.8855 139.671 94.1014C138.787 93.1033 138.503 91.7465 138.575 90.4484C127.749 89.0622 117.127 85.0537 108.542 78.2532C99.7976 84.222 89.3125 88.3968 78.5525 87.5619Z" fill="#68CF4F"/>
<path d="M1.23315 166.636C2.30735 166.636 3.38155 166.636 4.45824 166.636C4.45325 170.705 4.46571 174.776 4.45075 178.845C5.36544 177.108 7.00789 175.768 8.93945 175.333C11.7134 174.702 14.9136 175.258 16.9947 177.294C18.3306 178.584 18.8515 180.488 18.8589 182.297C18.8764 186.448 18.8614 190.599 18.8664 194.752C17.7848 194.752 16.7056 194.752 15.6264 194.752C15.6189 190.855 15.6414 186.957 15.6164 183.063C15.584 181.415 15.1529 179.563 13.7023 178.586C11.6162 177.192 8.65034 177.55 6.7138 179.049C5.22089 180.249 4.49811 182.178 4.47319 184.054C4.43581 187.621 4.4707 191.185 4.45824 194.752C3.38155 194.752 2.30735 194.752 1.23315 194.752C1.23315 185.379 1.23315 176.009 1.23315 166.636Z" fill="#68CF4F"/>
<path d="M53.0738 166.636C54.148 166.636 55.2222 166.636 56.2989 166.636C56.2939 170.7 56.3063 174.764 56.2914 178.83C57.4553 176.844 59.5439 175.425 61.8418 175.156C64.1148 174.925 66.5498 175.308 68.439 176.66C70.2684 177.945 71.4572 180.006 71.871 182.18C72.2672 184.271 72.2473 186.455 71.7264 188.521C71.1955 190.636 69.8746 192.567 68.0029 193.713C66.1785 194.839 63.9503 195.127 61.8443 194.936C59.5289 194.707 57.2709 193.462 56.082 191.429C56.0396 192.537 55.9624 193.643 55.9001 194.752C54.9555 194.752 54.0159 194.752 53.0738 194.752C53.0738 185.379 53.0738 176.009 53.0738 166.636ZM60.6455 177.982C58.3625 178.596 56.7923 180.764 56.4534 183.033C56.1294 185.362 56.2091 187.957 57.6223 189.942C59.8106 193.161 65.3037 193.213 67.5193 190C68.7979 188.228 69.0521 185.931 68.8478 183.811C68.6733 181.964 67.9007 180.093 66.4128 178.922C64.8052 177.667 62.5721 177.465 60.6455 177.982Z" fill="#68CF4F"/>
<path d="M85.8779 175.748C89.4469 174.073 94.2671 175.649 95.8572 179.33C97.4722 175.616 102.275 174.244 105.909 175.589C108.588 176.414 110.502 179.049 110.535 181.835C110.579 186.14 110.54 190.445 110.555 194.752C109.478 194.752 108.404 194.752 107.329 194.752C107.329 191.183 107.327 187.614 107.329 184.047C107.337 182.404 107.417 180.545 106.275 179.215C104.757 177.498 102.058 177.359 100.062 178.253C97.9284 179.198 96.6498 181.519 96.6498 183.801C96.6298 187.45 96.6498 191.101 96.6423 194.752C95.5631 194.752 94.4815 194.752 93.4048 194.752C93.3998 190.681 93.4097 186.607 93.3998 182.536C93.3998 181.072 92.9536 179.464 91.6825 178.596C89.2824 176.943 85.6411 177.711 83.9862 180.075C83.0765 181.278 82.7276 182.812 82.7226 184.298C82.7077 187.783 82.7226 191.267 82.7176 194.752C81.6409 194.752 80.5667 194.752 79.4925 194.752C79.4925 188.28 79.4925 181.808 79.4925 175.335C80.4346 175.335 81.3768 175.335 82.3189 175.335C82.3812 176.541 82.4609 177.749 82.5033 178.954C83.2809 177.587 84.4099 176.379 85.8779 175.748Z" fill="#68CF4F"/>
<path d="M120.297 177.286C122.049 175.663 124.509 175.079 126.847 175.089C129.284 175.045 131.812 175.842 133.534 177.617C135.697 179.792 136.193 183.083 135.735 186.005C130.673 186.01 125.613 186.003 120.554 186.008C120.743 187.857 121.416 189.764 122.904 190.966C124.706 192.493 127.283 192.602 129.494 192.102C130.909 191.787 132.235 190.899 132.799 189.525C133.701 189.977 134.606 190.422 135.505 190.882C134.449 192.582 132.814 193.939 130.877 194.503C128.843 195.087 126.67 195.127 124.596 194.764C122.346 194.362 120.242 193.074 118.986 191.153C117.498 188.931 117.217 186.137 117.443 183.537C117.635 181.216 118.523 178.865 120.297 177.286ZM123.866 178.345C121.915 179.248 120.86 181.335 120.591 183.378C124.656 183.383 128.721 183.383 132.786 183.378C132.547 181.519 131.749 179.591 130.094 178.564C128.243 177.446 125.808 177.47 123.866 178.345Z" fill="#68CF4F"/>
<path d="M144.859 177.165C146.604 175.629 148.994 175.082 151.272 175.089C153.714 175.045 156.247 175.845 157.971 177.627C160.125 179.804 160.618 183.085 160.159 186.006C155.098 186.011 150.038 186.003 144.979 186.008C145.168 187.857 145.841 189.764 147.331 190.967C149.131 192.49 151.705 192.602 153.914 192.105C155.332 191.789 156.66 190.902 157.224 189.525C158.121 189.972 159.01 190.427 159.918 190.855C158.819 192.749 156.922 194.158 154.781 194.645C152.817 195.095 150.746 195.112 148.772 194.712C146.496 194.252 144.408 192.853 143.219 190.85C141.851 188.595 141.634 185.844 141.896 183.279C142.125 180.982 143.07 178.683 144.859 177.165ZM147.817 178.606C146.138 179.605 145.28 181.512 145.016 183.378C149.081 183.383 153.146 183.383 157.211 183.378C156.967 181.348 155.987 179.223 154.053 178.303C152.097 177.416 149.672 177.52 147.817 178.606Z" fill="#68CF4F"/>
<path d="M26.9516 175.335C28.0258 175.335 29.1 175.335 30.1742 175.335C30.1742 179.153 30.1742 182.968 30.1742 186.786C30.1792 188.046 30.234 189.381 30.8696 190.507C31.4279 191.506 32.5295 192.082 33.6311 192.259C35.7022 192.599 37.9927 192.152 39.5629 190.698C40.8614 189.532 41.3324 187.723 41.3399 186.035C41.3524 182.469 41.3399 178.902 41.3449 175.335C42.4241 175.335 43.5032 175.335 44.5849 175.335C44.5849 181.808 44.5849 188.28 44.5849 194.752C43.6378 194.754 42.6907 194.754 41.7461 194.742C41.6838 193.77 41.6066 192.801 41.5617 191.829C40.5174 193.42 38.7728 194.436 36.9135 194.764C34.2691 195.246 31.2484 195.092 29.0901 193.318C27.5049 192.073 26.9442 189.967 26.9541 188.034C26.9467 183.801 26.9516 179.568 26.9516 175.335Z" fill="#68CF4F"/>
</svg>
