<svg width="19" height="19" viewBox="0 0 19 19" fill="none" xmlns="http://www.w3.org/2000/svg">
<path d="M17.7083 11.8037L15.5686 10.463C15.3447 10.3408 15.2 10.1067 15.2 9.86638V8.99902C15.4542 8.73714 16.1063 7.99299 16.3681 7.00718C16.6304 6.79183 16.7833 6.47329 16.7833 6.13192V5.03782C16.7833 4.78162 16.6715 4.52356 16.4666 4.29997L16.466 2.83256C16.4644 2.80439 16.2732 0 12.9833 0C11.5824 0 10.7564 0.521646 10.2785 1.05198C9.60109 0.451695 8.64099 0.0112441 7.28066 0C2.95372 0.0357734 2.67851 4.42351 2.67565 4.47799C2.62025 7.36027 0.686354 10.1827 0.0951234 10.9791C-0.0524617 11.178 -0.0232935 11.4583 0.160993 11.6169C0.908975 12.2616 2.44862 12.3462 2.52937 12.35H5.0624C5.06967 12.3851 5.06967 12.4355 5.05449 12.4665L5.01775 12.5444C4.95189 12.685 4.87778 12.8433 4.80178 12.8908L2.74089 13.6717C1.65347 14.0843 0.846891 15.0068 0.583115 16.1398L0.008361 18.6115C-0.0137935 18.7058 0.00869499 18.8046 0.0685157 18.8803C0.128336 18.956 0.22022 19 0.316482 19H14.2499C14.3465 19 14.438 18.956 14.4979 18.8803C14.558 18.8046 14.5802 18.7058 14.5584 18.6114L13.9833 16.1398C13.9055 15.8056 13.7801 15.4899 13.6146 15.2H18.6833C18.8585 15.2 19 15.0581 19 14.8833V13.9976C19 13.0786 18.4987 12.2341 17.7083 11.8037ZM0.715151 18.3667L1.19965 16.2833C1.41563 15.3564 2.07589 14.6015 2.96541 14.2639L5.04625 13.4754C5.05609 13.4716 5.06589 13.4672 5.07539 13.4624C5.35152 13.3247 5.4788 13.0533 5.59091 12.8136L5.62576 12.7404C5.73753 12.5077 5.72172 12.1948 5.58679 11.9804C5.48133 11.8126 5.31352 11.7167 5.12701 11.7167L2.54551 11.717C2.19115 11.6986 1.22467 11.5758 0.697116 11.2287C1.40454 10.2508 3.25263 7.42046 3.30867 4.50018C3.31691 4.34376 3.5484 0.664406 7.28066 0.633346C8.58533 0.644107 9.46252 1.10267 10.0525 1.70005C10.0707 1.72614 10.0932 1.74978 10.1198 1.77004C11.1514 2.87401 11.252 4.39728 11.2571 4.49035C11.3141 7.42076 13.1615 10.2505 13.8693 11.229C13.3423 11.5755 12.3768 11.6986 12.037 11.7167H9.4397C9.25382 11.7167 9.08694 11.812 8.98181 11.9785C8.84628 12.1933 8.82884 12.5064 8.94032 12.7395L8.97323 12.8098C9.08627 13.0508 9.21389 13.3244 9.49132 13.4624C9.50049 13.4672 9.51032 13.4716 9.52045 13.4754L11.601 14.2639C12.0464 14.4329 12.4342 14.7064 12.7376 15.0538C12.7528 15.0775 12.7711 15.0989 12.7919 15.1177C13.0665 15.4515 13.2656 15.8485 13.3667 16.2833L13.8512 18.3667H0.715151ZM18.3667 14.5667H13.1512C12.7904 14.1756 12.3394 13.8667 11.8255 13.6718L9.7646 12.8905C9.68797 12.843 9.61323 12.6828 9.54673 12.5413L9.51158 12.4672C9.49733 12.4368 9.49796 12.3858 9.50557 12.35L12.0532 12.3497C12.1184 12.3462 13.6606 12.2613 14.4079 11.6147C14.59 11.4567 14.6188 11.1783 14.4725 10.9807C13.881 10.1846 11.9465 7.3622 11.8901 4.46786C11.8886 4.4408 11.7855 2.79578 10.7205 1.50972C11.2202 0.928662 11.9792 0.633346 12.9833 0.633346C15.6636 0.633346 15.828 2.77719 15.8334 2.85V4.43175C15.8334 4.52104 15.8714 4.60654 15.9375 4.66639C16.0728 4.78863 16.15 4.92386 16.15 5.03786V6.13195C16.15 6.30199 16.0629 6.4597 15.9169 6.55407C15.8476 6.59871 15.7985 6.66904 15.7798 6.74912C15.5331 7.82485 14.6775 8.626 14.6686 8.6339C14.6037 8.69376 14.5667 8.7783 14.5667 8.86665V9.86638C14.5667 10.3423 14.8346 10.7841 15.2488 11.0092L17.3885 12.35C17.9918 12.679 18.3667 13.3105 18.3667 13.9976V14.5667Z" fill="#4D4D4D"/>
</svg>
