<svg width="16" height="22" viewBox="0 0 16 22" fill="none" xmlns="http://www.w3.org/2000/svg">
<path d="M0.443077 8.26919C0.358109 8.26919 0.276621 8.23608 0.216539 8.17714C0.156457 8.11819 0.122703 8.03825 0.122703 7.95489V7.78517C0.123014 6.54455 0.42547 5.32196 1.00488 4.21922C1.58429 3.11648 2.42389 2.16551 3.45374 1.44552C4.48359 0.725532 5.67388 0.257358 6.92549 0.0799924C8.1771 -0.0973732 9.45379 0.0212039 10.6492 0.425848C10.7296 0.453064 10.7956 0.510474 10.8328 0.585449C10.87 0.660424 10.8753 0.746822 10.8475 0.825637C10.8198 0.904451 10.7613 0.969226 10.6849 1.00571C10.6084 1.0422 10.5204 1.0474 10.44 1.02019C9.34112 0.647588 8.16734 0.538111 7.01655 0.700883C5.86575 0.863656 4.7713 1.29396 3.82443 1.95592C2.87757 2.61789 2.10573 3.49232 1.57326 4.50633C1.0408 5.52034 0.763149 6.64453 0.763452 7.78517V7.95489C0.763452 8.03825 0.729698 8.11819 0.669616 8.17714C0.609534 8.23608 0.528046 8.26919 0.443077 8.26919Z" fill="#4D4D4D"/>
<path d="M15.6737 13.32C15.5887 13.32 15.5072 13.2869 15.4471 13.2279C15.387 13.169 15.3533 13.089 15.3533 13.0057V7.78517C15.354 6.55888 15.0328 5.35306 14.4207 4.28387C14.3806 4.21139 14.3712 4.12636 14.3945 4.04713C14.4177 3.9679 14.4718 3.90081 14.545 3.86033C14.6182 3.81984 14.7047 3.80919 14.7859 3.83069C14.867 3.85218 14.9363 3.90409 14.9788 3.97523C15.6451 5.13861 15.9947 6.45073 15.994 7.78517V13.0057C15.994 13.089 15.9603 13.169 15.9002 13.2279C15.8401 13.2869 15.7586 13.32 15.6737 13.32Z" fill="#4D4D4D"/>
<path d="M13.2869 2.66838C13.2043 2.66838 13.1248 2.63708 13.0652 2.581C12.8506 2.38051 12.6227 2.19414 12.3831 2.02312C12.3153 1.97362 12.2701 1.89984 12.2575 1.81783C12.2449 1.73583 12.2658 1.65225 12.3157 1.58533C12.3657 1.5184 12.4405 1.47354 12.524 1.46052C12.6075 1.4475 12.6929 1.46739 12.7615 1.51584C13.0239 1.7031 13.2732 1.90733 13.5079 2.12715C13.5541 2.17054 13.5859 2.22648 13.5994 2.28778C13.6129 2.34907 13.6074 2.41293 13.5836 2.47112C13.5598 2.52932 13.5188 2.5792 13.4659 2.61436C13.4129 2.64951 13.3505 2.66832 13.2866 2.66838H13.2869Z" fill="#4D4D4D"/>
<path d="M15.6641 15.1338C14.0795 15.0854 13.4368 13.754 13.3183 13.0569C13.3153 13.0399 13.3138 13.0226 13.3138 13.0054V7.77543C13.3174 6.42579 12.7744 5.13002 11.8041 4.17317C11.3237 3.69939 10.7529 3.32308 10.1242 3.06572C9.49558 2.80836 8.82141 2.675 8.14023 2.67325C6.7645 2.6697 5.44369 3.20245 4.46835 4.15428C3.49301 5.10612 2.94304 6.39907 2.93943 7.74871C2.93943 9.66594 1.24401 10.3103 0.347286 10.3832C0.262804 10.3898 0.179093 10.3633 0.114479 10.3095C0.0498646 10.2557 0.00961258 10.179 0.0025359 10.0961C-0.00454078 10.0133 0.0221345 9.93103 0.076721 9.86743C0.131308 9.80383 0.209358 9.76404 0.293783 9.75677C0.375479 9.74955 2.29868 9.56254 2.29868 7.74871C2.30047 6.99789 2.45299 6.25477 2.74752 5.56177C3.04205 4.86877 3.47283 4.23947 4.01527 3.7098C4.55771 3.18013 5.20118 2.76046 5.90894 2.47475C6.6167 2.18904 7.37489 2.04289 8.14023 2.04465C8.90556 2.0464 9.66305 2.19602 10.3694 2.48497C11.0758 2.77392 11.7173 3.19654 12.2572 3.72869C12.7971 4.26084 13.2249 4.89211 13.5161 5.58645C13.8073 6.28079 13.9563 7.02461 13.9545 7.77543V12.9758C13.9949 13.1701 14.3143 14.4634 15.6846 14.5052C15.7695 14.5065 15.8505 14.5409 15.9096 14.6007C15.9688 14.6606 16.0013 14.741 16 14.8244C15.9986 14.9077 15.9636 14.9872 15.9026 15.0452C15.8416 15.1032 15.7596 15.1351 15.6746 15.1338H15.6641Z" fill="#4D4D4D"/>
<path d="M15.238 17.4552C15.2001 17.4552 11.4646 17.4081 11.0032 13.3332C11.0017 13.3217 11.0009 13.3102 11.001 13.2986V7.74871C11.001 6.98291 10.6909 6.24847 10.1389 5.70696C9.58697 5.16546 8.83833 4.86124 8.05773 4.86124C7.27712 4.86124 6.52849 5.16546 5.97652 5.70696C5.42455 6.24847 5.11445 6.98291 5.11445 7.74871C5.11599 8.18495 5.05572 8.61927 4.93536 9.03923C4.6246 10.1097 3.56865 12.5845 0.430583 12.4742C0.388501 12.4727 0.347134 12.4631 0.308847 12.4459C0.27056 12.4287 0.236104 12.4043 0.20745 12.374C0.178795 12.3437 0.156505 12.3082 0.141854 12.2695C0.127202 12.2307 0.120477 12.1896 0.122063 12.1483C0.122946 12.1068 0.132323 12.0659 0.149637 12.0281C0.16695 11.9903 0.191846 11.9562 0.222842 11.928C0.253838 11.8998 0.290302 11.878 0.330064 11.8639C0.369826 11.8498 0.412072 11.8437 0.454291 11.8459C3.03971 11.9424 3.98481 10.0198 4.31896 8.86699C4.42314 8.50308 4.47511 8.1267 4.47338 7.74871C4.47338 7.28698 4.56609 6.82976 4.7462 6.40317C4.92631 5.97658 5.19031 5.58897 5.52312 5.26248C5.85593 4.93598 6.25103 4.67699 6.68586 4.50029C7.1207 4.32359 7.58675 4.23264 8.05741 4.23264C8.52807 4.23264 8.99412 4.32359 9.42895 4.50029C9.86379 4.67699 10.2589 4.93598 10.5917 5.26248C10.9245 5.58897 11.1885 5.97658 11.3686 6.40317C11.5487 6.82976 11.6414 7.28698 11.6414 7.74871V13.2804C12.0499 16.7858 15.1098 16.8266 15.238 16.8266C15.3229 16.8266 15.4044 16.8597 15.4645 16.9187C15.5246 16.9776 15.5583 17.0576 15.5583 17.1409C15.5583 17.2243 15.5246 17.3042 15.4645 17.3632C15.4044 17.4221 15.3229 17.4552 15.238 17.4552Z" fill="#4D4D4D"/>
<path d="M0.877825 17.0281C0.79582 17.0283 0.716854 16.9977 0.657189 16.9425C0.597525 16.8873 0.561704 16.8117 0.557106 16.7314C0.552507 16.6511 0.579479 16.5721 0.632469 16.5107C0.685458 16.4493 0.76043 16.4102 0.841943 16.4014C7.61497 15.6411 8.72795 10.2392 8.89198 7.95207C8.90048 7.84275 8.8857 7.7329 8.84858 7.6295C8.81146 7.5261 8.75282 7.4314 8.67637 7.35144C8.60201 7.27247 8.51171 7.20956 8.41122 7.1667C8.31072 7.12385 8.20223 7.10199 8.09265 7.10251C7.88023 7.10251 7.67651 7.1853 7.5263 7.33265C7.3761 7.48001 7.29171 7.67987 7.29171 7.88826C7.29269 8.09194 7.28199 8.29551 7.25968 8.498C6.53627 14.8198 0.382206 14.8931 0.320374 14.8931C0.235406 14.8931 0.153917 14.8599 0.0938355 14.801C0.0337537 14.7421 0 14.6621 0 14.5788C0 14.4954 0.0337537 14.4155 0.0938355 14.3565C0.153917 14.2976 0.235406 14.2645 0.320374 14.2645C0.550723 14.2645 5.96505 14.184 6.62374 8.42791C6.64328 8.24889 6.65269 8.06894 6.65193 7.88889C6.65252 7.51396 6.8046 7.15455 7.07484 6.88944C7.34508 6.62432 7.71143 6.47512 8.09361 6.47454C8.2911 6.47387 8.48658 6.51347 8.66764 6.59084C8.84871 6.66821 9.0114 6.78166 9.1454 6.92399C9.28081 7.06772 9.38478 7.23713 9.4509 7.42178C9.51702 7.60643 9.54389 7.80241 9.52985 7.99764C9.3546 10.4413 8.16409 16.2131 0.913707 17.0275C0.901764 17.0283 0.889789 17.0285 0.877825 17.0281Z" fill="#4D4D4D"/>
<path d="M13.6342 19.5903C13.5976 19.5901 13.5613 19.5838 13.5268 19.5717C12.52 19.229 11.6067 18.6643 10.8572 17.921C10.1077 17.1777 9.54189 16.2757 9.20339 15.2844C6.1451 19.1166 2.24646 19.1628 2.07506 19.1628C1.99009 19.1628 1.90861 19.1297 1.84852 19.0708C1.78844 19.0118 1.75469 18.9319 1.75469 18.8485C1.75469 18.7652 1.78844 18.6852 1.84852 18.6263C1.90861 18.5673 1.99009 18.5342 2.07506 18.5342C2.11575 18.5342 6.16816 18.4732 9.07524 14.399C9.11171 14.3485 9.16257 14.3097 9.22144 14.2874C9.28031 14.2651 9.34457 14.2604 9.40616 14.2739C9.46774 14.2873 9.52392 14.3182 9.56764 14.3629C9.61136 14.4075 9.64068 14.4638 9.65191 14.5247C9.89458 15.5456 10.3969 16.4896 11.112 17.2686C11.8272 18.0475 12.7318 18.6361 13.7415 18.9793C13.8131 19.0038 13.8734 19.0524 13.9119 19.1165C13.9503 19.1806 13.9644 19.256 13.9515 19.3293C13.9386 19.4026 13.8997 19.4691 13.8416 19.5169C13.7835 19.5646 13.71 19.5906 13.6342 19.5903Z" fill="#4D4D4D"/>
<path d="M4.35965 21.2975C4.28266 21.2977 4.20819 21.2707 4.14986 21.2214C4.09152 21.1721 4.05323 21.1038 4.04199 21.0291C4.03075 20.9544 4.04731 20.8782 4.08864 20.8145C4.12997 20.7508 4.19331 20.7038 4.26706 20.6821C5.90398 20.208 7.403 19.3599 8.64113 18.2073C8.67709 18.1698 8.72192 18.1415 8.77166 18.1249C8.82141 18.1083 8.87454 18.104 8.92638 18.1123C8.97823 18.1207 9.02719 18.1414 9.06896 18.1726C9.11072 18.2039 9.14402 18.2447 9.1659 18.2916C9.71054 19.4545 11.8791 20.5322 11.9009 20.5426C11.9763 20.5802 12.0334 20.6456 12.0598 20.7243C12.0862 20.8031 12.0799 20.8889 12.0421 20.9631C12.0043 21.0373 11.9381 21.0938 11.8581 21.1204C11.778 21.1469 11.6904 21.1414 11.6145 21.1049C11.5261 21.0615 9.6282 20.1211 8.80068 18.9271C7.54056 20.0099 6.05759 20.8139 4.45256 21.2843C4.42237 21.293 4.3911 21.2974 4.35965 21.2975Z" fill="#4D4D4D"/>
<path d="M8.05901 22C7.9891 22.0002 7.92104 21.978 7.8652 21.9367C7.80937 21.8954 7.76883 21.8374 7.74978 21.7714C7.73072 21.7054 7.73419 21.6351 7.75965 21.5712C7.78511 21.5073 7.83118 21.4534 7.89081 21.4176L8.76127 20.893C8.79703 20.8685 8.83754 20.8513 8.88029 20.8427C8.92305 20.834 8.96716 20.8341 9.00991 20.8427C9.05266 20.8514 9.09315 20.8686 9.1289 20.8932C9.16465 20.9177 9.1949 20.9492 9.21779 20.9857C9.24068 21.0222 9.25574 21.0628 9.26203 21.1052C9.26832 21.1476 9.26572 21.1908 9.25438 21.2322C9.24304 21.2735 9.22321 21.3122 9.19609 21.3457C9.16897 21.3793 9.13515 21.4071 9.0967 21.4273L8.22625 21.9522C8.17611 21.9831 8.1182 21.9996 8.05901 22Z" fill="#4D4D4D"/>
</svg>
