<svg width="23" height="23" viewBox="0 0 23 23" fill="none" xmlns="http://www.w3.org/2000/svg">
<path d="M21.6631 11H0.503487C0.22557 11 0 11.224 0 11.5C0 11.776 0.22557 12 0.503487 12H21.6632C21.9411 12 22.1667 11.776 22.1667 11.5C22.1667 11.224 21.9411 11 21.6631 11Z" fill="white"/>
<path d="M11.5834 22.0798L11.5834 0.920174C11.5834 0.642258 11.3594 0.416687 11.0834 0.416687C10.8074 0.416687 10.5833 0.642258 10.5833 0.920174L10.5833 22.0799C10.5833 22.3578 10.8074 22.5834 11.0834 22.5834C11.3594 22.5834 11.5834 22.3577 11.5834 22.0798Z" fill="white"/>
</svg>
