<svg width="21" height="21" viewBox="0 0 21 21" fill="none" xmlns="http://www.w3.org/2000/svg">
<path d="M19.3468 9.06849L18.1352 8.8516C17.9189 7.94064 17.5727 7.02968 17.0535 6.29224L17.7458 5.29452C18.0054 4.94749 17.9622 4.47032 17.6593 4.16667L16.8804 3.38584C16.5775 3.08219 16.1015 3.03881 15.7553 3.29909L14.7601 3.99315C13.9812 3.4726 13.1158 3.12557 12.2071 2.90868L11.9908 1.69406C11.9042 1.26027 11.5581 1 11.1254 1H9.95705C9.52435 1 9.17818 1.30365 9.09164 1.69406L8.87528 2.90868C7.92333 3.08219 7.05791 3.42922 6.32231 3.94977L5.32708 3.25571C4.98091 2.99543 4.50493 3.03881 4.20204 3.34247L3.76933 3.73288L3.37989 4.16667C3.077 4.47032 3.03373 4.94749 3.29335 5.29452L3.98568 6.29224C3.46643 7.07306 3.12027 7.94064 2.90391 8.8516L1.69233 9.06849C1.25962 9.15525 1 9.50228 1 9.93607V11.0639C1 11.4977 1.3029 11.8447 1.69233 11.9315L2.90391 12.1484C3.12027 13.1027 3.46643 13.9703 3.98568 14.7078L3.29335 15.7055C3.03373 16.0525 3.077 16.5297 3.37989 16.8333L4.15877 17.6142C4.46166 17.9178 4.93764 17.9612 5.28381 17.7009L6.27904 17.0068C7.05791 17.5274 7.92333 17.8744 8.83201 18.0913L9.04837 19.3059C9.13491 19.7397 9.48108 20 9.91378 20H11.0821C11.5148 20 11.861 19.6963 11.9475 19.3059L12.1639 18.0913C13.0726 17.8744 13.9812 17.5274 14.7168 17.0068L15.7121 17.7009C16.0582 17.9612 16.5342 17.9178 16.8371 17.6142L17.616 16.8333C17.9189 16.5297 17.9621 16.0525 17.7025 15.7055L17.0102 14.7078C17.5294 13.9269 17.8756 13.0594 18.092 12.1484L19.3035 11.9315C19.7363 11.8447 19.9959 11.4977 19.9959 11.0639V9.93607C20.0391 9.50228 19.7363 9.15525 19.3468 9.06849Z" stroke="#5DCB42" stroke-miterlimit="10" stroke-linecap="round" stroke-linejoin="round"/>
<path d="M10.5195 13.9703C12.4313 13.9703 13.9812 12.4166 13.9812 10.5C13.9812 8.5834 12.4313 7.02969 10.5195 7.02969C8.60768 7.02969 7.05784 8.5834 7.05784 10.5C7.05784 12.4166 8.60768 13.9703 10.5195 13.9703Z" stroke="#5DCB42" stroke-miterlimit="10" stroke-linecap="round" stroke-linejoin="round"/>
</svg>
