<svg width="19" height="17" viewBox="0 0 19 17" fill="none" xmlns="http://www.w3.org/2000/svg">
<path d="M2.77083 4.04762H1.1875C0.532792 4.04762 0 3.50281 0 2.83333V1.21429C0 0.544809 0.532792 0 1.1875 0H2.77083C3.42554 0 3.95833 0.544809 3.95833 1.21429V2.83333C3.95833 3.50281 3.42554 4.04762 2.77083 4.04762ZM1.1875 0.809524C0.969792 0.809524 0.791667 0.991667 0.791667 1.21429V2.83333C0.791667 3.05595 0.969792 3.2381 1.1875 3.2381H2.77083C2.98854 3.2381 3.16667 3.05595 3.16667 2.83333V1.21429C3.16667 0.991667 2.98854 0.809524 2.77083 0.809524H1.1875Z" fill="#4D4D4D"/>
<path d="M2.77083 10.5238H1.1875C0.532792 10.5238 0 9.979 0 9.30952V7.69048C0 7.021 0.532792 6.47619 1.1875 6.47619H2.77083C3.42554 6.47619 3.95833 7.021 3.95833 7.69048V9.30952C3.95833 9.979 3.42554 10.5238 2.77083 10.5238ZM1.1875 7.28571C0.969792 7.28571 0.791667 7.46786 0.791667 7.69048V9.30952C0.791667 9.53214 0.969792 9.71429 1.1875 9.71429H2.77083C2.98854 9.71429 3.16667 9.53214 3.16667 9.30952V7.69048C3.16667 7.46786 2.98854 7.28571 2.77083 7.28571H1.1875Z" fill="#4D4D4D"/>
<path d="M2.77083 17H1.1875C0.532792 17 0 16.4552 0 15.7857V14.1667C0 13.4972 0.532792 12.9524 1.1875 12.9524H2.77083C3.42554 12.9524 3.95833 13.4972 3.95833 14.1667V15.7857C3.95833 16.4552 3.42554 17 2.77083 17ZM1.1875 13.7619C0.969792 13.7619 0.791667 13.944 0.791667 14.1667V15.7857C0.791667 16.0083 0.969792 16.1905 1.1875 16.1905H2.77083C2.98854 16.1905 3.16667 16.0083 3.16667 15.7857V14.1667C3.16667 13.944 2.98854 13.7619 2.77083 13.7619H1.1875Z" fill="#4D4D4D"/>
<path d="M18.6042 2.42857H5.9375C5.719 2.42857 5.54167 2.24724 5.54167 2.02381C5.54167 1.80038 5.719 1.61905 5.9375 1.61905H18.6042C18.8227 1.61905 19 1.80038 19 2.02381C19 2.24724 18.8227 2.42857 18.6042 2.42857Z" fill="#4D4D4D"/>
<path d="M18.6042 8.90476H5.9375C5.719 8.90476 5.54167 8.72343 5.54167 8.5C5.54167 8.27657 5.719 8.09524 5.9375 8.09524H18.6042C18.8227 8.09524 19 8.27657 19 8.5C19 8.72343 18.8227 8.90476 18.6042 8.90476Z" fill="#4D4D4D"/>
<path d="M18.6042 15.381H5.9375C5.719 15.381 5.54167 15.1996 5.54167 14.9762C5.54167 14.7528 5.719 14.5714 5.9375 14.5714H18.6042C18.8227 14.5714 19 14.7528 19 14.9762C19 15.1996 18.8227 15.381 18.6042 15.381Z" fill="#4D4D4D"/>
</svg>
