<svg width="22" height="22" viewBox="0 0 22 22" fill="none" xmlns="http://www.w3.org/2000/svg">
<path d="M17.3048 15.9369V18.6986M18.6905 17.3176H15.9189M12.5736 20.6698C5.09684 20.6698 1 19.8146 1 19.8146C1.18376 15.9661 3.29401 14.5079 5.75732 13.7333C7.49586 13.1865 8.40922 12.2849 8.40922 12.2849M12.8087 12.2849C12.8087 12.2849 13.1756 12.6471 13.8869 13.0515M21 17.3177C21 19.3514 19.3455 21 17.3045 21C15.2636 21 13.6091 19.3514 13.6091 17.3177C13.6091 15.284 15.2636 13.6354 17.3045 13.6354C19.3455 13.6354 21 15.284 21 17.3177ZM10.609 12.9677C13.0051 12.9677 14.5973 9.79178 14.8297 8.98733C14.8467 8.92887 15.2052 8.74744 15.2352 8.69459C16.5322 6.4075 15.1145 6.14756 15.1145 6.14756C15.1145 6.14756 15.1809 4.94239 14.88 3.81014C14.88 3.81014 14.1202 1 10.609 1C7.0978 1 6.33802 3.81014 6.33802 3.81014C6.03712 4.94239 6.10355 6.14756 6.10355 6.14756C6.10355 6.14756 4.68582 6.4075 5.98283 8.69459C6.01283 8.74744 6.37132 8.92887 6.38832 8.98733C6.62069 9.79178 8.21294 12.9677 10.609 12.9677Z" stroke="#5DCB42" stroke-miterlimit="10" stroke-linecap="round" stroke-linejoin="round"/>
</svg>
